<svg width="515" height="60" viewBox="0 0 515 60" fill="none" xmlns="http://www.w3.org/2000/svg">
<rect x="0.75" y="0.75" width="328.5" height="58.5" rx="29.25" fill="white" stroke="#F5F5F5" stroke-width="1.5"/>
<path d="M21.35 35H29.396V34.01H22.394V28.898H29.396V27.926H22.394V22.85H29.396V21.86H21.35V35ZM31.7721 35H32.7801V29.978C32.7801 28.142 34.1661 26.756 35.9841 26.756C37.9461 26.756 39.0621 28.034 39.0621 29.96V35H40.0881V29.96C40.0881 27.386 38.5221 25.82 36.1101 25.82C34.5801 25.82 33.3741 26.594 32.7621 27.692V26H31.7721V35ZM41.5819 26.918H43.1299V31.724C43.1299 34.316 43.8139 35 46.3159 35H46.4599V34.046C44.5699 34.046 44.1739 33.704 44.1739 31.706V26.918H46.4599V26H44.1739V23.282L43.1299 23.894V26H41.5819V26.918ZM52.4582 35.18C54.5462 35.18 55.9322 34.172 56.7422 32.444L55.8422 32.012C55.2482 33.398 54.1142 34.262 52.4402 34.262C50.3162 34.262 48.8402 32.822 48.6962 30.842H56.9942V30.392C56.9942 27.692 55.0142 25.82 52.3862 25.82C49.7042 25.82 47.7242 27.89 47.7242 30.554C47.7242 33.182 49.5422 35.18 52.4582 35.18ZM52.3862 26.738C54.3842 26.738 55.7342 28.016 55.9322 29.906H48.7322C49.0202 28.088 50.4962 26.738 52.3862 26.738ZM59.1764 35H60.2024V30.302C60.2024 28.142 61.2104 26.954 63.1184 26.954H63.9644V26H63.1184C61.7324 26 60.7064 26.666 60.1844 27.746V26H59.1764V35ZM71.8974 39.158H72.9954L78.8094 26H77.6934L74.5254 33.326L71.1234 26H69.9894L73.9674 34.496L71.8974 39.158ZM84.4311 35.18C87.0231 35.18 89.1111 33.128 89.1111 30.5C89.1111 27.872 87.0231 25.82 84.4311 25.82C81.8391 25.82 79.7691 27.872 79.7691 30.5C79.7691 33.128 81.8391 35.18 84.4311 35.18ZM84.4311 34.244C82.3971 34.244 80.7951 32.57 80.7951 30.5C80.7951 28.43 82.3971 26.756 84.4311 26.756C86.4651 26.756 88.0671 28.43 88.0671 30.5C88.0671 32.57 86.4651 34.244 84.4311 34.244ZM95.2697 35.18C96.7457 35.18 97.9517 34.442 98.5637 33.344V35H99.5717V26H98.5457V31.022C98.5457 32.858 97.1597 34.244 95.3597 34.244C93.3977 34.244 92.2817 32.966 92.2817 31.04V26H91.2557V31.04C91.2557 33.614 92.7317 35.18 95.2697 35.18ZM102.243 35H103.269V30.302C103.269 28.142 104.277 26.954 106.185 26.954H107.031V26H106.185C104.799 26 103.773 26.666 103.251 27.746V26H102.243V35ZM118.06 35.18C120.148 35.18 121.534 34.172 122.344 32.444L121.444 32.012C120.85 33.398 119.716 34.262 118.042 34.262C115.918 34.262 114.442 32.822 114.298 30.842H122.596V30.392C122.596 27.692 120.616 25.82 117.988 25.82C115.306 25.82 113.326 27.89 113.326 30.554C113.326 33.182 115.144 35.18 118.06 35.18ZM117.988 26.738C119.986 26.738 121.336 28.016 121.534 29.906H114.334C114.622 28.088 116.098 26.738 117.988 26.738ZM124.778 35H125.786V29.906C125.786 27.98 127.1 26.738 128.864 26.738C130.646 26.738 131.762 27.854 131.762 29.546V35H132.788V29.744C132.788 27.89 134.12 26.738 135.812 26.738C137.666 26.738 138.818 27.98 138.818 29.708V35H139.844V29.78C139.844 27.422 138.35 25.82 135.83 25.82C134.174 25.82 132.878 26.684 132.338 27.944C131.87 26.666 130.7 25.82 128.936 25.82C127.46 25.82 126.344 26.522 125.768 27.584V26H124.778V35ZM146.604 35.18C147.972 35.18 149.502 34.442 150.24 33.128V35H151.266V26H150.24V27.872C149.502 26.558 147.972 25.82 146.604 25.82C143.958 25.82 141.978 27.926 141.978 30.5C141.978 33.074 143.976 35.18 146.604 35.18ZM146.658 34.244C144.624 34.244 143.004 32.57 143.004 30.5C143.004 28.43 144.624 26.756 146.658 26.756C148.746 26.756 150.348 28.448 150.348 30.5C150.348 32.57 148.746 34.244 146.658 34.244ZM153.817 35H154.843V26H153.817V35ZM153.817 24.47H154.843V21.86H153.817V24.47ZM157.544 35H158.588V21.86H157.544V35ZM161.075 35H162.119V32.534H161.075V35Z" fill="#8A8A8A"/>
<rect x="345" width="170" height="60" rx="30" fill="url(#paint0_linear_711_42)"/>
<path d="M389.934 23.88C388.634 22.66 387.074 22.06 385.274 22.06C383.334 22.06 381.674 22.74 380.334 24.12C378.994 25.5 378.314 27.16 378.314 29.14C378.314 31.1 378.994 32.76 380.334 34.14C381.674 35.52 383.334 36.2 385.274 36.2C389.334 36.2 391.794 33.8 391.794 29.08H385.754V30.7H389.674C389.614 31.84 389.194 32.74 388.374 33.42C387.554 34.08 386.534 34.42 385.274 34.42C383.854 34.42 382.634 33.9 381.654 32.88C380.674 31.86 380.174 30.6 380.174 29.14C380.174 27.68 380.674 26.42 381.654 25.4C382.634 24.36 383.854 23.84 385.274 23.84C386.534 23.84 387.634 24.26 388.594 25.12L389.934 23.88ZM395.171 30.6C395.391 29.06 396.551 28.1 398.131 28.1C399.651 28.1 400.751 29.06 400.971 30.6H395.171ZM402.771 31.3C402.771 29.84 402.331 28.68 401.451 27.8C400.591 26.9 399.471 26.46 398.131 26.46C396.771 26.46 395.631 26.9 394.711 27.8C393.811 28.68 393.351 29.84 393.351 31.3C393.351 32.76 393.811 33.94 394.711 34.84C395.631 35.74 396.771 36.2 398.131 36.2C399.991 36.2 401.651 35.32 402.431 33.72L401.671 33.44C401.311 33.3 401.051 33.18 400.871 33.12C400.371 34.02 399.331 34.56 398.191 34.56C396.591 34.56 395.391 33.56 395.171 32.02H402.751C402.771 31.88 402.771 31.64 402.771 31.3ZM407.604 23.14H405.784V26.66H404.104V28.2H405.784V36H407.604V28.2H409.584V26.66H407.604V23.14ZM415.991 32.02C415.991 33.14 416.451 34.12 417.371 34.96C418.291 35.78 419.431 36.2 420.811 36.2C422.111 36.2 423.171 35.86 423.991 35.18C424.811 34.5 425.291 33.64 425.411 32.6C425.671 30.44 424.351 28.94 421.731 28.28L419.931 27.84C418.631 27.52 417.971 26.88 417.971 25.92C417.971 25.3 418.231 24.8 418.731 24.42C419.251 24.04 419.851 23.84 420.551 23.84C422.071 23.84 423.151 24.74 423.151 26.1H425.011C425.011 24.88 424.591 23.92 423.751 23.18C422.911 22.44 421.851 22.06 420.571 22.06C419.351 22.06 418.311 22.42 417.431 23.16C416.551 23.88 416.111 24.8 416.111 25.94C416.111 27.76 417.231 28.96 419.471 29.54L421.251 29.98C422.691 30.3 423.691 31.08 423.591 32.44C423.411 33.58 422.471 34.46 420.811 34.46C419.971 34.46 419.271 34.22 418.711 33.72C418.151 33.22 417.871 32.64 417.851 32.02H415.991ZM430.358 23.14H428.538V26.66H426.858V28.2H428.538V36H430.358V28.2H432.338V26.66H430.358V23.14ZM443.464 36V26.66H441.664V28.06C441.084 27.04 439.744 26.46 438.384 26.46C437.064 26.46 435.944 26.9 435.024 27.8C434.104 28.7 433.644 29.86 433.644 31.32C433.644 32.76 434.104 33.94 435.024 34.84C435.944 35.74 437.064 36.2 438.384 36.2C439.744 36.2 441.044 35.6 441.664 34.56V36H443.464ZM441.644 31.3C441.644 32.26 441.344 33.02 440.744 33.58C440.144 34.14 439.404 34.42 438.544 34.42C437.684 34.42 436.964 34.12 436.384 33.54C435.804 32.96 435.504 32.2 435.504 31.3C435.504 30.4 435.784 29.66 436.364 29.1C436.944 28.52 437.684 28.24 438.544 28.24C439.364 28.24 440.084 28.52 440.704 29.06C441.324 29.6 441.644 30.36 441.644 31.3ZM448.33 32.6C448.33 29.96 449.19 28.2 450.89 28.2C451.37 28.2 451.83 28.3 452.27 28.52L452.55 26.82C452.21 26.58 451.67 26.46 450.93 26.46C449.65 26.46 448.79 27.22 448.33 28.76V26.66H446.51V36H448.33V32.6ZM456.921 23.14H455.101V26.66H453.421V28.2H455.101V36H456.921V28.2H458.901V26.66H456.921V23.14ZM462.027 30.6C462.247 29.06 463.407 28.1 464.987 28.1C466.507 28.1 467.607 29.06 467.827 30.6H462.027ZM469.627 31.3C469.627 29.84 469.187 28.68 468.307 27.8C467.447 26.9 466.327 26.46 464.987 26.46C463.627 26.46 462.487 26.9 461.567 27.8C460.667 28.68 460.207 29.84 460.207 31.3C460.207 32.76 460.667 33.94 461.567 34.84C462.487 35.74 463.627 36.2 464.987 36.2C466.847 36.2 468.507 35.32 469.287 33.72L468.527 33.44C468.167 33.3 467.907 33.18 467.727 33.12C467.227 34.02 466.187 34.56 465.047 34.56C463.447 34.56 462.247 33.56 462.027 32.02H469.607C469.627 31.88 469.627 31.64 469.627 31.3ZM481.14 36V21.58H479.32V28.06C478.7 27.02 477.44 26.46 476.02 26.46C474.7 26.46 473.58 26.9 472.68 27.8C471.78 28.7 471.32 29.86 471.32 31.32C471.32 32.76 471.78 33.94 472.68 34.84C473.6 35.74 474.72 36.2 476.04 36.2C477.4 36.2 478.7 35.6 479.32 34.56V36H481.14ZM476.2 28.24C477.02 28.24 477.74 28.52 478.36 29.06C478.98 29.6 479.3 30.36 479.3 31.3C479.3 32.24 479 33 478.38 33.58C477.78 34.14 477.06 34.42 476.2 34.42C475.34 34.42 474.62 34.12 474.04 33.54C473.46 32.96 473.18 32.2 473.18 31.3C473.18 30.4 473.46 29.66 474.04 29.1C474.62 28.52 475.34 28.24 476.2 28.24Z" fill="white"/>
<defs>
<linearGradient id="paint0_linear_711_42" x1="430" y1="0" x2="430" y2="60" gradientUnits="userSpaceOnUse">
<stop stop-color="#64BB47"/>
<stop offset="1" stop-color="#2C9553"/>
</linearGradient>
</defs>
</svg>
